<svg width="16" height="16" viewBox="0 0 16 16" fill="none" xmlns="http://www.w3.org/2000/svg">
<path d="M0.289787 15.7097C-0.0965956 15.3226 -0.0965956 14.695 0.289787 14.3079L14.2819 0.290314C14.6683 -0.0967713 15.2948 -0.0967715 15.6812 0.290314C16.0675 0.6774 16.0675 1.30499 15.6812 1.69207L1.689 15.7097C1.30262 16.0968 0.676169 16.0968 0.289787 15.7097Z" fill="#272A33"/>
<path d="M15.7102 15.7097C16.0966 15.3226 16.0966 14.695 15.7102 14.3079L1.71806 0.290316C1.33168 -0.0967694 0.705231 -0.0967696 0.318848 0.290316C-0.0675345 0.677401 -0.0675345 1.30499 0.318848 1.69208L14.311 15.7097C14.6974 16.0968 15.3238 16.0968 15.7102 15.7097Z" fill="#272A33"/>
</svg>
