<svg width="121" height="17" viewBox="0 0 121 17" fill="none" xmlns="http://www.w3.org/2000/svg">
<path d="M112.5 16.3636C111.406 16.3636 110.382 16.1534 109.428 15.7328C108.473 15.3122 107.635 14.7292 106.915 13.9836C106.194 13.2317 105.628 12.3619 105.217 11.3743C104.813 10.3802 104.61 9.31606 104.61 8.18182C104.61 7.04758 104.813 5.98662 105.217 4.99894C105.628 4.00489 106.194 3.13509 106.915 2.38955C107.635 1.63764 108.473 1.0514 109.428 0.630841C110.382 0.21028 111.406 0 112.5 0C113.594 0 114.618 0.21028 115.572 0.630841C116.527 1.0514 117.365 1.63764 118.085 2.38955C118.806 3.13509 119.369 4.00489 119.773 4.99894C120.184 5.98662 120.39 7.04758 120.39 8.18182C120.39 9.31606 120.184 10.3802 119.773 11.3743C119.369 12.3619 118.806 13.2317 118.085 13.9836C117.365 14.7292 116.527 15.3122 115.572 15.7328C114.618 16.1534 113.594 16.3636 112.5 16.3636ZM112.491 13.3815C113.161 13.3815 113.774 13.254 114.33 12.9992C114.886 12.7443 115.37 12.3842 115.781 11.9191C116.192 11.4539 116.511 10.9059 116.739 10.2751C116.966 9.63785 117.08 8.9401 117.08 8.18182C117.08 7.42353 116.966 6.72897 116.739 6.09813C116.511 5.46092 116.192 4.90973 115.781 4.44456C115.37 3.9794 114.886 3.61937 114.33 3.36449C113.774 3.1096 113.161 2.98216 112.491 2.98216C111.833 2.98216 111.223 3.1096 110.66 3.36449C110.104 3.61937 109.62 3.9794 109.21 4.44456C108.799 4.90973 108.479 5.46092 108.252 6.09813C108.03 6.72897 107.92 7.42353 107.92 8.18182C107.92 8.9401 108.03 9.63785 108.252 10.2751C108.479 10.9059 108.799 11.4539 109.21 11.9191C109.62 12.3842 110.104 12.7443 110.66 12.9992C111.223 13.254 111.833 13.3815 112.491 13.3815Z" fill="#272A33"/>
<path d="M93.6123 16.0903V0.311035H99.3555C100.187 0.311035 100.911 0.483855 101.528 0.829495C102.145 1.17514 102.624 1.66354 102.964 2.29471C103.304 2.92588 103.474 3.66975 103.474 4.52634V4.79684C103.474 5.7436 103.285 6.51001 102.907 7.0961C102.529 7.68218 102.063 8.11048 101.509 8.38098V8.78673C102.013 8.81679 102.403 9.02717 102.681 9.4179C102.958 9.79359 103.096 10.297 103.096 10.9282V16.0903H100.602V11.3565C100.602 10.9958 100.521 10.7028 100.357 10.4774C100.206 10.2519 99.9475 10.1392 99.5822 10.1392H96.1061V16.0903H93.6123ZM96.1061 7.43423H99.091C99.683 7.43423 100.143 7.24638 100.47 6.87068C100.81 6.47996 100.98 5.96901 100.98 5.33784V5.11243C100.98 4.48126 100.817 3.97783 100.489 3.60213C100.162 3.21141 99.6956 3.01604 99.091 3.01604H96.1061V7.43423Z" fill="#272A33"/>
<path d="M81.5591 16.0903V0.311035H87.1063C87.9538 0.311035 88.6986 0.513911 89.3406 0.919662C89.9955 1.31039 90.5027 1.86642 90.8622 2.58775C91.2346 3.30909 91.4208 4.16567 91.4208 5.15751V5.47309C91.4208 6.4499 91.2282 7.30649 90.843 8.04285C90.4706 8.76419 89.957 9.32773 89.3021 9.73348C88.6601 10.1242 87.9281 10.3196 87.1063 10.3196H84.1016V16.0903H81.5591ZM84.1016 7.61456H86.8559C87.4594 7.61456 87.9474 7.4192 88.3198 7.02847C88.6922 6.63775 88.8783 6.10426 88.8783 5.42801V5.20259C88.8783 4.52634 88.6922 3.99285 88.3198 3.60213C87.9474 3.21141 87.4594 3.01604 86.8559 3.01604H84.1016V7.61456Z" fill="#272A33"/>
<path d="M74.6216 16.1726C73.5783 16.1726 72.6573 15.9578 71.8587 15.5284C71.0601 15.0989 70.4354 14.4842 69.9846 13.6845C69.5338 12.8848 69.3083 11.9221 69.3083 10.7965V10.1745H71.8201V10.7965C71.8201 11.7296 72.0712 12.433 72.5736 12.907C73.0759 13.3661 73.7586 13.5956 74.6216 13.5956C75.4975 13.5956 76.1479 13.3957 76.573 12.9958C77.0109 12.596 77.2299 12.085 77.2299 11.463C77.2299 11.0335 77.1204 10.6855 76.9014 10.4189C76.6953 10.1523 76.3862 9.93755 75.974 9.77464C75.5747 9.59692 75.0853 9.43401 74.5057 9.28591L74.0613 9.17483C73.1339 8.93787 72.3353 8.64167 71.6655 8.28623C71.0086 7.91598 70.4998 7.43465 70.1391 6.84225C69.7914 6.24985 69.6175 5.47972 69.6175 4.53188C69.6175 3.58404 69.8107 2.77689 70.1971 2.11043C70.5964 1.42917 71.1503 0.910819 71.8587 0.555377C72.58 0.185125 73.4237 0 74.3897 0C75.3558 0 76.2123 0.192531 76.9594 0.577593C77.7194 0.947844 78.3119 1.51063 78.7369 2.26594C79.1749 3.00644 79.3938 3.93948 79.3938 5.06504V5.73149H76.8821V5.06504C76.8821 4.47264 76.7791 3.99872 76.573 3.64328C76.3798 3.27302 76.0964 3.00644 75.7229 2.84353C75.3493 2.66581 74.905 2.57695 74.3897 2.57695C73.6169 2.57695 73.0437 2.74727 72.6702 3.0879C72.3095 3.41372 72.1292 3.86543 72.1292 4.44302C72.1292 4.82808 72.2129 5.1539 72.3804 5.42048C72.5607 5.68706 72.8247 5.90922 73.1725 6.08694C73.5203 6.26466 73.9647 6.42016 74.5057 6.55345L74.95 6.66453C75.9161 6.90149 76.7533 7.2051 77.4617 7.57535C78.1831 7.9456 78.7434 8.43433 79.1427 9.04154C79.542 9.64876 79.7416 10.4263 79.7416 11.3741C79.7416 12.322 79.5291 13.1587 79.104 13.8844C78.6918 14.5953 78.0993 15.1581 77.3265 15.5728C76.5665 15.9727 75.6649 16.1726 74.6216 16.1726Z" fill="#272A33"/>
<path d="M61.327 16.0903V3.01604H57.3945V0.311035H67.804V3.01604H63.8715V16.0903H61.327Z" fill="#272A33"/>
<path d="M46.437 16.0903V0.311035H52.1802C53.0115 0.311035 53.7357 0.483855 54.3528 0.829495C54.97 1.17514 55.4486 1.66354 55.7886 2.29471C56.1287 2.92588 56.2987 3.66975 56.2987 4.52634V4.79684C56.2987 5.7436 56.1098 6.51001 55.732 7.0961C55.3541 7.68218 54.8881 8.11048 54.3339 8.38098V8.78673C54.8377 8.81679 55.2282 9.02717 55.5053 9.4179C55.7823 9.79359 55.9209 10.297 55.9209 10.9282V16.0903H53.4271V11.3565C53.4271 10.9958 53.3453 10.7028 53.1815 10.4774C53.0304 10.2519 52.7722 10.1392 52.4069 10.1392H48.9308V16.0903H46.437ZM48.9308 7.43423H51.9157C52.5077 7.43423 52.9674 7.24638 53.2949 6.87068C53.6349 6.47996 53.805 5.96901 53.805 5.33784V5.11243C53.805 4.48126 53.6412 3.97783 53.3138 3.60213C52.9863 3.21141 52.5203 3.01604 51.9157 3.01604H48.9308V7.43423Z" fill="#272A33"/>
<path d="M32.1193 16.0903L35.6594 0.311035H40.0845L43.6246 16.0903H41.008L40.2769 12.6188H35.467L34.7359 16.0903H32.1193ZM36.0634 9.86873H39.6805L38.0451 2.182H37.6988L36.0634 9.86873Z" fill="#272A33"/>
<path d="M22.842 16.0903V0.311035H28.3892C29.2367 0.311035 29.9815 0.513911 30.6235 0.919662C31.2784 1.31039 31.7856 1.86642 32.1451 2.58775C32.5175 3.30909 32.7037 4.16567 32.7037 5.15751V5.47309C32.7037 6.4499 32.5111 7.30649 32.1259 8.04285C31.7535 8.76419 31.2399 9.32773 30.585 9.73348C29.9429 10.1242 29.211 10.3196 28.3892 10.3196H25.3845V16.0903H22.842ZM25.3845 7.61456H28.1388C28.7423 7.61456 29.2303 7.4192 29.6027 7.02847C29.975 6.63775 30.1612 6.10426 30.1612 5.42801V5.20259C30.1612 4.52634 29.975 3.99285 29.6027 3.60213C29.2303 3.21141 28.7423 3.01604 28.1388 3.01604H25.3845V7.61456Z" fill="#272A33"/>
<path d="M19.8701 3.50684H3.50684V6.42871H19.8701V16.3633H0V12.8574H16.3633V9.93555H0V0H19.8701V3.50684Z" fill="#272A33"/>
</svg>
